# xmcd
#
# Track frame offsets:
# 150
# 24677
# 28839
# 46351
# 61034
# 78251
# 90703
# 114821
# 130514
# 171161
# 193609
# 217081
#
# Disc length: 3941 seconds
#
# Revision: 0
# Processed by: cddbd v1.4PL0 Copyright (c) Steve Scherf et al.
# Submitted via: Audion 3.0.2 (http://www.panic.com/audion/)
#
DISCID=980f630c
DTITLE=Mils - .Mils
DYEAR=1900
DGENRE=
TTITLE0=0524
TTITLE1=0053
TTITLE2=0351
TTITLE3=0312
TTITLE4=0347
TTITLE5=0243
TTITLE6=0520
TTITLE7=0329
TTITLE8=0900
TTITLE9=0456
TTITLE10=0510
TTITLE11=0300
EXTD=
EXTT0=
EXTT1=
EXTT2=
EXTT3=
EXTT4=
EXTT5=
EXTT6=
EXTT7=
EXTT8=
EXTT9=
EXTT10=
EXTT11=
PLAYORDER=
